<svg version="1.1" xmlns="http://www.w3.org/2000/svg" xmlns:xlink="http://www.w3.org/1999/xlink" width="617.01802" height="572.04415" viewBox="0,0,617.01802,572.04415"><g transform="translate(53.87463,63.21533)"><g data-paper-data="{&quot;isPaintingLayer&quot;:true}" fill-rule="nonzero" stroke-width="0" stroke-linecap="butt" stroke-linejoin="miter" stroke-miterlimit="10" stroke-dasharray="" stroke-dashoffset="0" style="mix-blend-mode: normal"><path d="M-27.26727,386.45646v-412.91291h534.53453v412.91291z" fill="#0095fd" stroke="none"/><path d="M86.6207,493.36442v-323.00405h36.60322v323.00405z" fill="#6d3724" stroke="#000000"/><path d="M156.25781,155.61686c0,36.13384 -24.03467,65.4261 -53.68296,65.4261c-29.64828,0 -53.68296,-29.29227 -53.68296,-65.4261c0,-36.13384 24.03467,-65.42609 53.68296,-65.42609c29.64828,0 53.68296,29.29227 53.68296,65.42609z" fill="#2daf0d" stroke="none"/><path d="M175.47799,209.24615c0,23.75661 -18.75833,43.01515 -41.89787,43.01515c-23.13954,0 -41.89786,-19.25854 -41.89786,-43.01515c0,-23.75661 18.75832,-43.01515 41.89786,-43.01515c23.13954,0 41.89787,19.25854 41.89787,43.01515z" fill="#2daf0d" stroke="none"/><path d="M187.76802,163.99644c0,22.21397 -22.76009,40.22197 -50.83608,40.22197c-28.07598,0 -50.83608,-18.00799 -50.83608,-40.22197c0,-22.21397 22.7601,-40.22195 50.83608,-40.22195c28.07599,0 50.83608,18.00798 50.83608,40.22195z" fill="#2daf0d" stroke="none"/><path d="M121.49098,214.93284c0,21.03667 -18.92948,38.09024 -42.28017,38.09024c-23.35069,0 -42.28017,-17.05357 -42.28017,-38.09024c0,-21.03667 18.92948,-38.09025 42.28017,-38.09025c23.35069,0 42.28017,17.05358 42.28017,38.09025z" fill="#2daf0d" stroke="none"/><path d="M35.61403,508.82882v-359.57737h44.90512v359.57737z" fill="#7e4530" stroke="#000000"/><path d="M121.04536,131.164c0,44.32926 -29.48592,80.26522 -65.85866,80.26522c-36.37273,0 -65.85865,-35.93597 -65.85865,-80.26522c0,-44.32927 29.48591,-80.26522 65.85865,-80.26522c36.37273,0 65.85866,35.93597 65.85866,80.26522z" fill="#38d306" stroke="none"/><path d="M144.62481,196.9568c0,29.14479 -23.01285,52.77131 -51.40062,52.77131c-28.38777,0 -51.40061,-23.62652 -51.40061,-52.77131c0,-29.14479 23.01285,-52.7713 51.40061,-52.7713c28.38777,0 51.40062,23.62651 51.40062,52.7713z" fill="#38d306" stroke="none"/><path d="M159.70231,141.44413c0,27.25226 -27.92226,49.3446 -62.36608,49.3446c-34.44383,0 -62.36608,-22.09233 -62.36608,-49.34459c0,-27.25226 27.92226,-49.3446 62.36608,-49.3446c34.44383,0 62.36608,22.09233 62.36608,49.3446z" fill="#38d306" stroke="none"/><path d="M78.39316,203.93328c0,25.80794 -23.22283,46.7294 -51.86963,46.7294c-28.6468,0 -51.86963,-20.92146 -51.86963,-46.7294c0,-25.80794 23.22283,-46.7294 51.86963,-46.7294c28.6468,0 51.86963,20.92146 51.86963,46.7294z" fill="#38d306" stroke="none"/><path d="M30.05109,498.31831v-165.88401h19.58255v165.88401z" fill="#6d3724" stroke="#000000"/><path d="M67.30661,324.54659c0,19.33143 -12.85843,35.00264 -28.72013,35.00264c-15.86168,0 -28.72012,-15.67122 -28.72012,-35.00264c0,-19.33143 12.85843,-35.00264 28.72012,-35.00264c15.86169,0 28.72013,15.67122 28.72013,35.00264z" fill="#2daf0d" stroke="none"/><path d="M77.58931,353.238c0,12.70967 -10.03561,23.0129 -22.41516,23.0129c-12.37955,0 -22.41515,-10.30322 -22.41515,-23.0129c0,-12.70967 10.03561,-23.01289 22.41516,-23.01289c12.37955,0 22.41516,10.30322 22.41516,23.01289z" fill="#2daf0d" stroke="none"/><path d="M84.16441,329.02962c0,11.88437 -12.17654,21.51855 -27.19706,21.51855c-15.02051,0 -27.19706,-9.63419 -27.19706,-21.51855c0,-11.88437 12.17654,-21.51855 27.19706,-21.51855c15.02051,0 27.19706,9.63419 27.19706,21.51855z" fill="#2daf0d" stroke="none"/><path d="M48.70652,356.28035c0,11.25452 -10.12718,20.3781 -22.61969,20.3781c-12.4925,0 -22.61969,-9.12358 -22.61969,-20.3781c0,-11.25452 10.12718,-20.37809 22.61969,-20.37809c12.4925,0 22.61969,9.12358 22.61969,20.37809z" fill="#2daf0d" stroke="none"/><path d="M2.76277,487.8078v-166.66667h24.02402v166.66667z" fill="#7e4530" stroke="#000000"/><path d="M48.46812,311.46443c0,23.71594 -15.77482,42.9415 -35.23406,42.9415c-19.45923,0 -35.23406,-19.22557 -35.23406,-42.9415c0,-23.71594 15.77482,-42.9415 35.23406,-42.9415c19.45923,0 35.23406,19.22557 35.23406,42.9415z" fill="#38d306" stroke="none"/><path d="M61.08301,346.66326c0,15.59232 -12.31176,28.23239 -27.49908,28.23239c-15.18732,0 -27.49908,-12.64007 -27.49908,-28.23239c0,-15.59232 12.31176,-28.23239 27.49908,-28.23239c15.18732,0 27.49908,12.64007 27.49908,28.23239z" fill="#38d306" stroke="none"/><path d="M69.1494,316.96425c0,14.57983 -14.93827,26.39912 -33.36555,26.39912c-18.42728,0 -33.36555,-11.81929 -33.36555,-26.39912c0,-14.57983 14.93827,-26.39912 33.36555,-26.39912c18.42728,0 33.36555,11.81929 33.36555,26.39912z" fill="#38d306" stroke="none"/><path d="M25.6494,350.39564c0,13.80712 -12.4241,25 -27.75,25c-15.3259,0 -27.75,-11.19288 -27.75,-25c0,-13.80712 12.4241,-25 27.75,-25c15.3259,0 27.75,11.19288 27.75,25z" fill="#38d306" stroke="none"/><path d="M197.73181,443.81487v-323.00405h36.60322v323.00405z" fill="#6d3724" stroke="#000000"/><path d="M267.36892,106.06731c0,36.13384 -24.03467,65.4261 -53.68297,65.4261c-29.64828,0 -53.68295,-29.29227 -53.68295,-65.4261c0,-36.13384 24.03467,-65.42609 53.68295,-65.42609c29.64828,0 53.68297,29.29227 53.68297,65.42609z" fill="#2daf0d" stroke="none"/><path d="M286.5891,159.6966c0,23.75661 -18.75833,43.01515 -41.89788,43.01515c-23.13955,0 -41.89787,-19.25854 -41.89787,-43.01515c0,-23.75661 18.75832,-43.01514 41.89787,-43.01514c23.13955,0 41.89788,19.25853 41.89788,43.01514z" fill="#2daf0d" stroke="none"/><path d="M298.87913,114.44689c0,22.21397 -22.7601,40.22197 -50.83608,40.22197c-28.07599,0 -50.83608,-18.00799 -50.83608,-40.22197c0,-22.21397 22.76009,-40.22195 50.83608,-40.22195c28.07599,0 50.83608,18.00798 50.83608,40.22195z" fill="#2daf0d" stroke="none"/><path d="M232.60209,165.38329c0,21.03667 -18.92948,38.09024 -42.28017,38.09024c-23.35069,0 -42.28017,-17.05357 -42.28017,-38.09024c0,-21.03667 18.92948,-38.09025 42.28017,-38.09025c23.35069,0 42.28017,17.05358 42.28017,38.09025z" fill="#2daf0d" stroke="none"/><path d="M146.72514,459.27927v-359.57736h44.90511v359.57737z" fill="#7e4530" stroke="#000000"/><path d="M232.15647,81.61445c0,44.32926 -29.48592,80.26521 -65.85866,80.26521c-36.37273,0 -65.85865,-35.93597 -65.85865,-80.26521c0,-44.32926 29.48591,-80.26521 65.85865,-80.26521c36.37273,0 65.85866,35.93597 65.85866,80.26521z" fill="#38d306" stroke="none"/><path d="M255.73592,147.40725c0,29.14479 -23.01285,52.7713 -51.40062,52.7713c-28.38777,0 -51.40061,-23.62651 -51.40061,-52.7713c0,-29.14479 23.01284,-52.7713 51.40061,-52.7713c28.38777,0 51.40062,23.62651 51.40062,52.7713z" fill="#38d306" stroke="none"/><path d="M270.81342,91.89458c0,27.25226 -27.92225,49.3446 -62.36608,49.3446c-34.44383,0 -62.36608,-22.09233 -62.36608,-49.34459c0,-27.25226 27.92226,-49.3446 62.36608,-49.3446c34.44383,0 62.36608,22.09234 62.36608,49.3446z" fill="#38d306" stroke="none"/><path d="M189.50427,154.38373c0,25.80794 -23.22283,46.7294 -51.86963,46.7294c-28.6468,0 -51.86963,-20.92146 -51.86963,-46.7294c0,-25.80793 23.22283,-46.7294 51.86963,-46.7294c28.6468,0 51.86963,20.92146 51.86963,46.7294z" fill="#38d306" stroke="none"/><path d="M141.1622,448.76876v-165.88401h19.58255v165.88401z" fill="#6d3724" stroke="#000000"/><path d="M178.41772,274.99704c0,19.33143 -12.85843,35.00265 -28.72012,35.00265c-15.86168,0 -28.72012,-15.67123 -28.72012,-35.00265c0,-19.33143 12.85843,-35.00264 28.72012,-35.00264c15.86168,0 28.72012,15.67122 28.72012,35.00264z" fill="#2daf0d" stroke="none"/><path d="M188.70042,303.68845c0,12.70967 -10.03562,23.0129 -22.41516,23.0129c-12.37955,0 -22.41515,-10.30322 -22.41515,-23.0129c0,-12.70967 10.03561,-23.0129 22.41515,-23.0129c12.37954,0 22.41516,10.30323 22.41516,23.0129z" fill="#2daf0d" stroke="none"/><path d="M195.27552,279.48007c0,11.88437 -12.17654,21.51855 -27.19705,21.51855c-15.02051,0 -27.19706,-9.63419 -27.19706,-21.51855c0,-11.88437 12.17654,-21.51855 27.19706,-21.51855c15.02052,0 27.19705,9.63419 27.19705,21.51855z" fill="#2daf0d" stroke="none"/><path d="M159.81763,306.7308c0,11.25451 -10.12718,20.3781 -22.61969,20.3781c-12.4925,0 -22.61969,-9.12358 -22.61969,-20.3781c0,-11.25451 10.12718,-20.3781 22.61969,-20.3781c12.49251,0 22.61969,9.12358 22.61969,20.3781z" fill="#2daf0d" stroke="none"/><path d="M113.87388,438.25825v-166.66667h24.02402v166.66667z" fill="#7e4530" stroke="#000000"/><path d="M159.57923,261.91488c0,23.71594 -15.77482,42.9415 -35.23406,42.9415c-19.45923,0 -35.23406,-19.22557 -35.23406,-42.9415c0,-23.71594 15.77482,-42.9415 35.23406,-42.9415c19.45923,0 35.23406,19.22557 35.23406,42.9415z" fill="#38d306" stroke="none"/><path d="M172.19412,297.11371c0,15.59232 -12.31176,28.23239 -27.49908,28.23239c-15.18732,0 -27.49908,-12.64007 -27.49908,-28.23239c0,-15.59232 12.31176,-28.23239 27.49908,-28.23239c15.18732,0 27.49908,12.64007 27.49908,28.23239z" fill="#38d306" stroke="none"/><path d="M180.26051,267.4147c0,14.57983 -14.93827,26.39912 -33.36555,26.39912c-18.42728,0 -33.36555,-11.81929 -33.36555,-26.39912c0,-14.57983 14.93827,-26.39912 33.36555,-26.39912c18.42728,0 33.36555,11.81929 33.36555,26.39912z" fill="#38d306" stroke="none"/><path d="M136.76051,300.84609c0,13.80712 -12.4241,25 -27.75,25c-15.3259,0 -27.75,-11.19288 -27.75,-25c0,-13.80712 12.4241,-25 27.75,-25c15.3259,0 27.75,11.19288 27.75,25z" fill="#38d306" stroke="none"/><path d="M62.59667,436.30737v-323.00405h36.60322v323.00405z" fill="#6d3724" stroke="#000000"/><path d="M132.23379,98.5598c0,36.13384 -24.03467,65.4261 -53.68296,65.4261c-29.64828,0 -53.68296,-29.29228 -53.68296,-65.4261c0,-36.13384 24.03467,-65.42609 53.68296,-65.42609c29.64828,0 53.68296,29.29227 53.68296,65.42609z" fill="#2daf0d" stroke="none"/><path d="M151.45396,152.18909c0,23.75661 -18.75833,43.01515 -41.89788,43.01515c-23.13954,0 -41.89786,-19.25854 -41.89786,-43.01515c0,-23.75661 18.75832,-43.01515 41.89786,-43.01515c23.13954,0 41.89788,19.25854 41.89788,43.01515z" fill="#2daf0d" stroke="none"/><path d="M163.74399,106.93938c0,22.21397 -22.7601,40.22197 -50.83608,40.22197c-28.07599,0 -50.83608,-18.008 -50.83608,-40.22197c0,-22.21397 22.7601,-40.22196 50.83608,-40.22196c28.07598,0 50.83608,18.00799 50.83608,40.22196z" fill="#2daf0d" stroke="none"/><path d="M97.46696,157.87578c0,21.03667 -18.92948,38.09024 -42.28017,38.09024c-23.35069,0 -42.28017,-17.05357 -42.28017,-38.09024c0,-21.03667 18.92948,-38.09025 42.28017,-38.09025c23.35069,0 42.28017,17.05358 42.28017,38.09025z" fill="#2daf0d" stroke="none"/><path d="M11.59,451.77176v-359.57736h44.90511v359.57736z" fill="#7e4530" stroke="#000000"/><path d="M97.02134,74.10694c0,44.32927 -29.48592,80.26522 -65.85865,80.26522c-36.37273,0 -65.85865,-35.93597 -65.85865,-80.26522c0,-44.32926 29.48591,-80.26521 65.85865,-80.26521c36.37273,0 65.85866,35.93597 65.85866,80.26521z" fill="#38d306" stroke="none"/><path d="M120.60079,139.89975c0,29.14479 -23.01285,52.77131 -51.40062,52.77131c-28.38777,0 -51.40061,-23.62652 -51.40061,-52.77131c0,-29.14479 23.01285,-52.7713 51.40061,-52.7713c28.38777,0 51.40062,23.62651 51.40062,52.7713z" fill="#38d306" stroke="none"/><path d="M135.67829,84.38708c0,27.25226 -27.92225,49.34459 -62.36608,49.34459c-34.44383,0 -62.36608,-22.09233 -62.36608,-49.34459c0,-27.25226 27.92226,-49.3446 62.36608,-49.3446c34.44383,0 62.36608,22.09234 62.36608,49.3446z" fill="#38d306" stroke="none"/><path d="M54.36914,146.87622c0,25.80793 -23.22283,46.72939 -51.86963,46.72939c-28.6468,0 -51.86963,-20.92146 -51.86963,-46.72939c0,-25.80793 23.22283,-46.7294 51.86963,-46.7294c28.6468,0 51.86963,20.92146 51.86963,46.7294z" fill="#38d306" stroke="none"/><path d="M6.02706,441.26125v-165.88401h19.58255v165.88401z" fill="#6d3724" stroke="#000000"/><path d="M43.28258,267.48953c0,19.33143 -12.85843,35.00264 -28.72012,35.00264c-15.86168,0 -28.72012,-15.67123 -28.72012,-35.00264c0,-19.33143 12.85843,-35.00264 28.72012,-35.00264c15.86168,0 28.72012,15.67122 28.72012,35.00264z" fill="#2daf0d" stroke="none"/><path d="M53.56528,296.18094c0,12.70967 -10.03561,23.0129 -22.41516,23.0129c-12.37955,0 -22.41515,-10.30322 -22.41515,-23.0129c0,-12.70967 10.03561,-23.01289 22.41516,-23.01289c12.37955,0 22.41516,10.30322 22.41516,23.01289z" fill="#2daf0d" stroke="none"/><path d="M60.14039,271.97257c0,11.88437 -12.17654,21.51855 -27.19706,21.51855c-15.02051,0 -27.19706,-9.63419 -27.19706,-21.51855c0,-11.88437 12.17654,-21.51855 27.19706,-21.51855c15.02051,0 27.19706,9.63419 27.19706,21.51855z" fill="#2daf0d" stroke="none"/><path d="M24.6825,299.22329c0,11.25452 -10.12718,20.3781 -22.61969,20.3781c-12.4925,0 -22.61969,-9.12358 -22.61969,-20.3781c0,-11.25452 10.12718,-20.37809 22.61969,-20.37809c12.4925,0 22.61969,9.12358 22.61969,20.37809z" fill="#2daf0d" stroke="none"/><path d="M-21.26126,430.75074v-166.66667h24.02402v166.66667z" fill="#7e4530" stroke="#000000"/><path d="M24.44409,254.40737c0,23.71594 -15.77482,42.9415 -35.23406,42.9415c-19.45923,0 -35.23406,-19.22557 -35.23406,-42.9415c0,-23.71594 15.77482,-42.9415 35.23406,-42.9415c19.45923,0 35.23406,19.22557 35.23406,42.9415z" fill="#38d306" stroke="none"/><path d="M37.05898,289.6062c0,15.59232 -12.31176,28.23239 -27.49908,28.23239c-15.18732,0 -27.49908,-12.64007 -27.49908,-28.23239c0,-15.59232 12.31176,-28.23239 27.49908,-28.23239c15.18732,0 27.49908,12.64007 27.49908,28.23239z" fill="#38d306" stroke="none"/><path d="M45.12537,259.90719c0,14.57983 -14.93827,26.39912 -33.36555,26.39912c-18.42728,0 -33.36555,-11.81929 -33.36555,-26.39912c0,-14.57983 14.93827,-26.39912 33.36555,-26.39912c18.42728,0 33.36555,11.81929 33.36555,26.39912z" fill="#38d306" stroke="none"/><path d="M1.62537,293.33858c0,13.80712 -12.4241,25 -27.75,25c-15.3259,0 -27.75,-11.19288 -27.75,-25c0,-13.80712 12.4241,-25 27.75,-25c15.3259,0 27.75,11.19288 27.75,25z" fill="#38d306" stroke="none"/><path d="M173.70778,386.75782v-323.00405h36.60323v323.00405z" fill="#6d3724" stroke="#000000"/><path d="M243.3449,49.01025c0,36.13384 -24.03467,65.4261 -53.68296,65.4261c-29.64828,0 -53.68295,-29.29228 -53.68295,-65.4261c0,-36.13384 24.03467,-65.42609 53.68295,-65.42609c29.64828,0 53.68296,29.29226 53.68296,65.42609z" fill="#2daf0d" stroke="none"/><path d="M262.56507,102.63954c0,23.75661 -18.75833,43.01515 -41.89787,43.01515c-23.13954,0 -41.89787,-19.25854 -41.89787,-43.01515c0,-23.75661 18.75832,-43.01514 41.89787,-43.01514c23.13955,0 41.89787,19.25853 41.89787,43.01514z" fill="#2daf0d" stroke="none"/><path d="M274.8551,57.38983c0,22.21397 -22.7601,40.22196 -50.83608,40.22196c-28.07599,0 -50.83608,-18.00799 -50.83608,-40.22196c0,-22.21397 22.76009,-40.22195 50.83608,-40.22195c28.07599,0 50.83608,18.00798 50.83608,40.22195z" fill="#2daf0d" stroke="none"/><path d="M208.57807,108.32623c0,21.03667 -18.92948,38.09024 -42.28017,38.09024c-23.35069,0 -42.28017,-17.05357 -42.28017,-38.09024c0,-21.03667 18.92948,-38.09024 42.28017,-38.09024c23.35069,0 42.28017,17.05357 42.28017,38.09024z" fill="#2daf0d" stroke="none"/><path d="M122.70111,402.22221v-359.57736h44.90512v359.57736z" fill="#7e4530" stroke="#000000"/><path d="M208.13245,24.55739c0,44.32926 -29.48592,80.26522 -65.85866,80.26522c-36.37273,0 -65.85865,-35.93597 -65.85865,-80.26522c0,-44.32927 29.48591,-80.26521 65.85865,-80.26521c36.37273,0 65.85866,35.93597 65.85866,80.26521z" fill="#38d306" stroke="none"/><path d="M231.7119,90.3502c0,29.14479 -23.01285,52.77131 -51.40062,52.77131c-28.38777,0 -51.40061,-23.62652 -51.40061,-52.77131c0,-29.14479 23.01284,-52.7713 51.40061,-52.7713c28.38777,0 51.40062,23.62651 51.40062,52.7713z" fill="#38d306" stroke="none"/><path d="M246.7894,34.83753c0,27.25227 -27.92225,49.3446 -62.36608,49.3446c-34.44383,0 -62.36608,-22.09233 -62.36608,-49.3446c0,-27.25227 27.92226,-49.3446 62.36608,-49.3446c34.44383,0 62.36608,22.09233 62.36608,49.3446z" fill="#38d306" stroke="none"/><path d="M165.48025,97.32667c0,25.80794 -23.22283,46.7294 -51.86963,46.7294c-28.6468,0 -51.86963,-20.92146 -51.86963,-46.7294c0,-25.80793 23.22283,-46.72939 51.86963,-46.72939c28.6468,0 51.86963,20.92146 51.86963,46.7294z" fill="#38d306" stroke="none"/><path d="M117.13817,391.7117v-165.88401h19.58255v165.88401z" fill="#6d3724" stroke="#000000"/><path d="M154.39369,217.93998c0,19.33143 -12.85843,35.00264 -28.72012,35.00264c-15.86168,0 -28.72012,-15.67122 -28.72012,-35.00264c0,-19.33143 12.85843,-35.00264 28.72012,-35.00264c15.86169,0 28.72012,15.67122 28.72012,35.00264z" fill="#2daf0d" stroke="none"/><path d="M164.67639,246.63139c0,12.70967 -10.03562,23.0129 -22.41516,23.0129c-12.37955,0 -22.41515,-10.30323 -22.41515,-23.0129c0,-12.70967 10.03561,-23.0129 22.41515,-23.0129c12.37955,0 22.41516,10.30323 22.41516,23.0129z" fill="#2daf0d" stroke="none"/><path d="M171.2515,222.42302c0,11.88437 -12.17654,21.51855 -27.19705,21.51855c-15.02051,0 -27.19706,-9.63419 -27.19706,-21.51855c0,-11.88437 12.17654,-21.51855 27.19706,-21.51855c15.02051,0 27.19705,9.63419 27.19705,21.51855z" fill="#2daf0d" stroke="none"/><path d="M135.79361,249.67374c0,11.25451 -10.12718,20.3781 -22.61968,20.3781c-12.4925,0 -22.61969,-9.12358 -22.61969,-20.3781c0,-11.25451 10.12718,-20.3781 22.61969,-20.3781c12.49251,0 22.61968,9.12358 22.61968,20.3781z" fill="#2daf0d" stroke="none"/><path d="M89.84985,381.20119v-166.66667h24.02402v166.66667z" fill="#7e4530" stroke="#000000"/><path d="M135.5552,204.85782c0,23.71594 -15.77482,42.9415 -35.23406,42.9415c-19.45923,0 -35.23406,-19.22557 -35.23406,-42.9415c0,-23.71594 15.77482,-42.9415 35.23406,-42.9415c19.45923,0 35.23406,19.22557 35.23406,42.9415z" fill="#38d306" stroke="none"/><path d="M148.17009,240.05665c0,15.59232 -12.31176,28.23239 -27.49908,28.23239c-15.18732,0 -27.49908,-12.64007 -27.49908,-28.23239c0,-15.59232 12.31176,-28.23239 27.49908,-28.23239c15.18732,0 27.49908,12.64007 27.49908,28.23239z" fill="#38d306" stroke="none"/><path d="M156.23648,210.35764c0,14.57983 -14.93827,26.39912 -33.36555,26.39912c-18.42728,0 -33.36555,-11.81929 -33.36555,-26.39912c0,-14.57983 14.93827,-26.39912 33.36555,-26.39912c18.42728,0 33.36555,11.81929 33.36555,26.39912z" fill="#38d306" stroke="none"/><path d="M112.73648,243.78903c0,13.80712 -12.4241,25 -27.75,25c-15.3259,0 -27.75,-11.19288 -27.75,-25c0,-13.80712 12.4241,-25 27.75,-25c15.3259,0 27.75,11.19288 27.75,25z" fill="#38d306" stroke="none"/><path d="M350.88496,434.80587v-323.00405h36.60322v323.00405z" fill="#6d3724" stroke="#000000"/><path d="M420.52208,97.0583c0,36.13384 -24.03467,65.4261 -53.68296,65.4261c-29.64828,0 -53.68295,-29.29227 -53.68295,-65.4261c0,-36.13384 24.03466,-65.42609 53.68295,-65.42609c29.64828,0 53.68296,29.29227 53.68296,65.42609z" fill="#2daf0d" stroke="none"/><path d="M439.74225,150.68759c0,23.75661 -18.75833,43.01515 -41.89787,43.01515c-23.13954,0 -41.89787,-19.25854 -41.89787,-43.01515c0,-23.75661 18.75832,-43.01515 41.89787,-43.01515c23.13954,0 41.89788,19.25854 41.89788,43.01515z" fill="#2daf0d" stroke="none"/><path d="M452.03228,105.43788c0,22.21397 -22.7601,40.22196 -50.83608,40.22196c-28.07599,0 -50.83608,-18.00799 -50.83608,-40.22196c0,-22.21397 22.7601,-40.22196 50.83608,-40.22196c28.07598,0 50.83608,18.00799 50.83608,40.22196z" fill="#2daf0d" stroke="none"/><path d="M385.75525,156.37428c0,21.03667 -18.92948,38.09024 -42.28017,38.09024c-23.35069,0 -42.28017,-17.05357 -42.28017,-38.09024c0,-21.03667 18.92948,-38.09025 42.28017,-38.09025c23.35069,0 42.28017,17.05358 42.28017,38.09025z" fill="#2daf0d" stroke="none"/><path d="M299.87829,450.27026v-359.57736h44.90512v359.57737z" fill="#7e4530" stroke="#000000"/><path d="M385.30963,72.60544c0,44.32926 -29.48592,80.26522 -65.85865,80.26522c-36.37273,0 -65.85865,-35.93597 -65.85865,-80.26522c0,-44.32927 29.48591,-80.26521 65.85866,-80.26521c36.37273,0 65.85866,35.93597 65.85866,80.26522z" fill="#38d306" stroke="none"/><path d="M408.88908,138.39825c0,29.14479 -23.01285,52.77131 -51.40062,52.77131c-28.38777,0 -51.40061,-23.62652 -51.40061,-52.77131c0,-29.14479 23.01284,-52.7713 51.40061,-52.7713c28.38777,0 51.40062,23.62651 51.40062,52.7713z" fill="#38d306" stroke="none"/><path d="M423.96658,82.88558c0,27.25227 -27.92226,49.3446 -62.36608,49.3446c-34.44383,0 -62.36608,-22.09233 -62.36608,-49.3446c0,-27.25226 27.92226,-49.3446 62.36608,-49.3446c34.44382,0 62.36608,22.09234 62.36608,49.3446z" fill="#38d306" stroke="none"/><path d="M342.65743,145.37472c0,25.80793 -23.22283,46.72939 -51.86963,46.72939c-28.6468,0 -51.86963,-20.92146 -51.86963,-46.72939c0,-25.80793 23.22283,-46.7294 51.86963,-46.7294c28.6468,0 51.86963,20.92146 51.86963,46.7294z" fill="#38d306" stroke="none"/><path d="M294.31535,439.75975v-165.88401h19.58255v165.88401z" fill="#6d3724" stroke="#000000"/><path d="M331.57087,265.98803c0,19.33143 -12.85843,35.00264 -28.72013,35.00264c-15.86168,0 -28.72012,-15.67122 -28.72012,-35.00264c0,-19.33143 12.85843,-35.00264 28.72012,-35.00264c15.86169,0 28.72013,15.67122 28.72013,35.00264z" fill="#2daf0d" stroke="none"/><path d="M341.85357,294.67944c0,12.70967 -10.03561,23.0129 -22.41516,23.0129c-12.37955,0 -22.41515,-10.30322 -22.41515,-23.0129c0,-12.70967 10.03561,-23.01289 22.41515,-23.01289c12.37955,0 22.41516,10.30322 22.41516,23.01289z" fill="#2daf0d" stroke="none"/><path d="M348.42868,270.47107c0,11.88437 -12.17654,21.51855 -27.19705,21.51855c-15.02051,0 -27.19705,-9.63419 -27.19705,-21.51855c0,-11.88437 12.17654,-21.51855 27.19705,-21.51855c15.02052,0 27.19705,9.63419 27.19705,21.51855z" fill="#2daf0d" stroke="none"/><path d="M312.97079,297.72179c0,11.25452 -10.12718,20.3781 -22.61969,20.3781c-12.4925,0 -22.61969,-9.12358 -22.61969,-20.3781c0,-11.25452 10.12718,-20.37809 22.61969,-20.37809c12.49251,0 22.61969,9.12358 22.61969,20.37809z" fill="#2daf0d" stroke="none"/><path d="M267.02703,429.24924v-166.66667h24.02402v166.66667z" fill="#7e4530" stroke="#000000"/><path d="M312.73238,252.90587c0,23.71594 -15.77482,42.9415 -35.23406,42.9415c-19.45923,0 -35.23406,-19.22557 -35.23406,-42.9415c0,-23.71594 15.77482,-42.9415 35.23406,-42.9415c19.45923,0 35.23406,19.22557 35.23406,42.9415z" fill="#38d306" stroke="none"/><path d="M325.34727,288.1047c0,15.59232 -12.31176,28.23239 -27.49908,28.23239c-15.18732,0 -27.49908,-12.64007 -27.49908,-28.23239c0,-15.59232 12.31176,-28.23239 27.49908,-28.23239c15.18732,0 27.49908,12.64007 27.49908,28.23239z" fill="#38d306" stroke="none"/><path d="M333.41366,258.40569c0,14.57983 -14.93827,26.39912 -33.36555,26.39912c-18.42728,0 -33.36555,-11.81929 -33.36555,-26.39912c0,-14.57983 14.93827,-26.39912 33.36555,-26.39912c18.42728,0 33.36555,11.81929 33.36555,26.39912z" fill="#38d306" stroke="none"/><path d="M289.91366,291.83708c0,13.80712 -12.4241,25 -27.75,25c-15.3259,0 -27.75,-11.19288 -27.75,-25c0,-13.80712 12.4241,-25 27.75,-25c15.3259,0 27.75,11.19288 27.75,25z" fill="#38d306" stroke="none"/><path d="M461.99607,385.25632v-323.00405h36.60323v323.00405z" fill="#6d3724" stroke="#000000"/><path d="M531.63319,47.50875c0,36.13384 -24.03468,65.4261 -53.68297,65.4261c-29.64828,0 -53.68295,-29.29228 -53.68295,-65.4261c0,-36.13384 24.03467,-65.42609 53.68295,-65.42609c29.64828,0 53.68297,29.29226 53.68297,65.42609z" fill="#2daf0d" stroke="none"/><path d="M550.85336,101.13804c0,23.75661 -18.75833,43.01515 -41.89788,43.01515c-23.13955,0 -41.89787,-19.25854 -41.89787,-43.01515c0,-23.75661 18.75832,-43.01514 41.89787,-43.01514c23.13955,0 41.89788,19.25854 41.89788,43.01515z" fill="#2daf0d" stroke="none"/><path d="M563.14339,55.88833c0,22.21397 -22.7601,40.22196 -50.83608,40.22196c-28.07599,0 -50.83608,-18.00799 -50.83608,-40.22196c0,-22.21397 22.76009,-40.22195 50.83608,-40.22195c28.07598,0 50.83608,18.00798 50.83608,40.22195z" fill="#2daf0d" stroke="none"/><path d="M496.86636,106.82473c0,21.03667 -18.92948,38.09024 -42.28017,38.09024c-23.35069,0 -42.28017,-17.05357 -42.28017,-38.09024c0,-21.03667 18.92948,-38.09024 42.28017,-38.09024c23.35069,0 42.28017,17.05358 42.28017,38.09024z" fill="#2daf0d" stroke="none"/><path d="M410.9894,400.72071v-359.57737h44.90512v359.57737z" fill="#7e4530" stroke="#000000"/><path d="M496.42074,23.05589c0,44.32927 -29.48592,80.26521 -65.85866,80.26521c-36.37273,0 -65.85865,-35.93597 -65.85865,-80.26521c0,-44.32926 29.48591,-80.26521 65.85865,-80.26521c36.37273,0 65.85866,35.93597 65.85866,80.26522z" fill="#38d306" stroke="none"/><path d="M520.00019,88.8487c0,29.14479 -23.01285,52.7713 -51.40062,52.7713c-28.38777,0 -51.40061,-23.62651 -51.40061,-52.7713c0,-29.14479 23.01284,-52.7713 51.40061,-52.7713c28.38777,0 51.40062,23.62651 51.40062,52.7713z" fill="#38d306" stroke="none"/><path d="M535.07769,33.33603c0,27.25226 -27.92225,49.3446 -62.36608,49.3446c-34.44382,0 -62.36608,-22.09233 -62.36608,-49.3446c0,-27.25226 27.92226,-49.3446 62.36608,-49.3446c34.44382,0 62.36608,22.09234 62.36608,49.3446z" fill="#38d306" stroke="none"/><path d="M453.76854,95.82517c0,25.80793 -23.22283,46.7294 -51.86963,46.7294c-28.6468,0 -51.86963,-20.92146 -51.86963,-46.7294c0,-25.80793 23.22283,-46.72939 51.86963,-46.72939c28.6468,0 51.86963,20.92146 51.86963,46.7294z" fill="#38d306" stroke="none"/><path d="M405.42646,390.2102v-165.88401h19.58255v165.88401z" fill="#6d3724" stroke="#000000"/><path d="M442.68198,216.43848c0,19.33143 -12.85843,35.00264 -28.72012,35.00264c-15.86168,0 -28.72012,-15.67123 -28.72012,-35.00264c0,-19.33143 12.85843,-35.00264 28.72012,-35.00264c15.86169,0 28.72012,15.67122 28.72012,35.00264z" fill="#2daf0d" stroke="none"/><path d="M452.96468,245.12989c0,12.70967 -10.03562,23.01289 -22.41516,23.01289c-12.37955,0 -22.41515,-10.30322 -22.41515,-23.01289c0,-12.70967 10.03561,-23.0129 22.41515,-23.0129c12.37955,0 22.41516,10.30322 22.41516,23.0129z" fill="#2daf0d" stroke="none"/><path d="M459.53979,220.92152c0,11.88436 -12.17654,21.51855 -27.19705,21.51855c-15.02051,0 -27.19706,-9.63419 -27.19706,-21.51855c0,-11.88437 12.17654,-21.51855 27.19706,-21.51855c15.02051,0 27.19705,9.63418 27.19705,21.51855z" fill="#2daf0d" stroke="none"/><path d="M424.0819,248.17224c0,11.25452 -10.12718,20.3781 -22.61968,20.3781c-12.49251,0 -22.61969,-9.12358 -22.61969,-20.3781c0,-11.25451 10.12718,-20.3781 22.61969,-20.3781c12.4925,0 22.61968,9.12358 22.61968,20.3781z" fill="#2daf0d" stroke="none"/><path d="M378.13814,379.69969v-166.66667h24.02402v166.66667z" fill="#7e4530" stroke="#000000"/><path d="M423.84349,203.35632c0,23.71594 -15.77482,42.9415 -35.23406,42.9415c-19.45923,0 -35.23406,-19.22557 -35.23406,-42.9415c0,-23.71594 15.77482,-42.9415 35.23406,-42.9415c19.45923,0 35.23406,19.22557 35.23406,42.9415z" fill="#38d306" stroke="none"/><path d="M436.45838,238.55515c0,15.59232 -12.31176,28.23239 -27.49908,28.23239c-15.18732,0 -27.49908,-12.64007 -27.49908,-28.23239c0,-15.59232 12.31176,-28.23239 27.49908,-28.23239c15.18732,0 27.49908,12.64007 27.49908,28.23239z" fill="#38d306" stroke="none"/><path d="M444.52477,208.85614c0,14.57983 -14.93827,26.39912 -33.36555,26.39912c-18.42728,0 -33.36555,-11.81929 -33.36555,-26.39912c0,-14.57983 14.93827,-26.39912 33.36555,-26.39912c18.42728,0 33.36555,11.81929 33.36555,26.39912z" fill="#38d306" stroke="none"/><path d="M401.02477,242.28753c0,13.80712 -12.4241,25 -27.75,25c-15.3259,0 -27.75,-11.19288 -27.75,-25c0,-13.80712 12.4241,-25 27.75,-25c15.3259,0 27.75,11.19288 27.75,25z" fill="#38d306" stroke="none"/><path d="M200.73481,428.79986v-323.00405h36.60323v323.00405z" fill="#6d3724" stroke="#000000"/><path d="M270.37192,91.05229c0,36.13384 -24.03467,65.4261 -53.68296,65.4261c-29.64828,0 -53.68295,-29.29227 -53.68295,-65.4261c0,-36.13384 24.03467,-65.42609 53.68295,-65.42609c29.64828,0 53.68296,29.29226 53.68296,65.42609z" fill="#2daf0d" stroke="none"/><path d="M289.5921,144.68158c0,23.75661 -18.75833,43.01515 -41.89787,43.01515c-23.13954,0 -41.89787,-19.25854 -41.89787,-43.01515c0,-23.75661 18.75832,-43.01514 41.89787,-43.01514c23.13955,0 41.89787,19.25854 41.89787,43.01515z" fill="#2daf0d" stroke="none"/><path d="M301.88213,99.43187c0,22.21397 -22.7601,40.22196 -50.83608,40.22196c-28.07599,0 -50.83608,-18.00799 -50.83608,-40.22196c0,-22.21397 22.76009,-40.22195 50.83608,-40.22195c28.07598,0 50.83608,18.00798 50.83608,40.22196z" fill="#2daf0d" stroke="none"/><path d="M235.60509,150.36827c0,21.03667 -18.92948,38.09024 -42.28017,38.09024c-23.35069,0 -42.28017,-17.05357 -42.28017,-38.09024c0,-21.03667 18.92948,-38.09025 42.28017,-38.09025c23.35069,0 42.28017,17.05358 42.28017,38.09025z" fill="#2daf0d" stroke="none"/><path d="M149.72814,444.26425v-359.57736h44.90512v359.57736z" fill="#7e4530" stroke="#000000"/><path d="M235.15947,66.59943c0,44.32926 -29.48591,80.26522 -65.85866,80.26522c-36.37273,0 -65.85865,-35.93597 -65.85865,-80.26522c0,-44.32926 29.48591,-80.26522 65.85865,-80.26522c36.37273,0 65.85866,35.93597 65.85866,80.26522z" fill="#38d306" stroke="none"/><path d="M258.73892,132.39224c0,29.14479 -23.01285,52.7713 -51.40062,52.7713c-28.38777,0 -51.40061,-23.62651 -51.40061,-52.7713c0,-29.14479 23.01284,-52.7713 51.40061,-52.7713c28.38777,0 51.40062,23.62651 51.40062,52.7713z" fill="#38d306" stroke="none"/><path d="M273.81642,76.87957c0,27.25227 -27.92225,49.3446 -62.36608,49.3446c-34.44382,0 -62.36608,-22.09233 -62.36608,-49.3446c0,-27.25226 27.92226,-49.3446 62.36608,-49.3446c34.44382,0 62.36608,22.09234 62.36608,49.3446z" fill="#38d306" stroke="none"/><path d="M192.50727,139.36871c0,25.80793 -23.22283,46.7294 -51.86963,46.7294c-28.6468,0 -51.86963,-20.92146 -51.86963,-46.7294c0,-25.80794 23.22283,-46.7294 51.86963,-46.7294c28.6468,0 51.86963,20.92146 51.86963,46.7294z" fill="#38d306" stroke="none"/><path d="M144.1652,433.75374v-165.88401h19.58255v165.88401z" fill="#6d3724" stroke="#000000"/><path d="M181.42072,259.98202c0,19.33143 -12.85843,35.00265 -28.72012,35.00265c-15.86168,0 -28.72012,-15.67123 -28.72012,-35.00265c0,-19.33143 12.85843,-35.00264 28.72012,-35.00264c15.86169,0 28.72012,15.67122 28.72012,35.00264z" fill="#2daf0d" stroke="none"/><path d="M191.70342,288.67343c0,12.70967 -10.03562,23.01289 -22.41516,23.01289c-12.37955,0 -22.41515,-10.30322 -22.41515,-23.01289c0,-12.70967 10.03561,-23.0129 22.41515,-23.0129c12.37955,0 22.41516,10.30322 22.41516,23.0129z" fill="#2daf0d" stroke="none"/><path d="M198.27852,264.46506c0,11.88436 -12.17654,21.51855 -27.19705,21.51855c-15.02051,0 -27.19706,-9.63419 -27.19706,-21.51855c0,-11.88437 12.17654,-21.51855 27.19706,-21.51855c15.02051,0 27.19705,9.63419 27.19705,21.51855z" fill="#2daf0d" stroke="none"/><path d="M162.82063,291.71578c0,11.25451 -10.12718,20.3781 -22.61968,20.3781c-12.4925,0 -22.61968,-9.12358 -22.61968,-20.3781c0,-11.25451 10.12718,-20.3781 22.61968,-20.3781c12.49251,0 22.61968,9.12358 22.61968,20.3781z" fill="#2daf0d" stroke="none"/><path d="M116.87688,423.24323v-166.66667h24.02402v166.66667z" fill="#7e4530" stroke="#000000"/><path d="M162.58223,246.89986c0,23.71594 -15.77482,42.9415 -35.23406,42.9415c-19.45923,0 -35.23406,-19.22557 -35.23406,-42.9415c0,-23.71594 15.77482,-42.9415 35.23406,-42.9415c19.45923,0 35.23406,19.22557 35.23406,42.9415z" fill="#38d306" stroke="none"/><path d="M175.19712,282.09869c0,15.59232 -12.31176,28.23239 -27.49908,28.23239c-15.18732,0 -27.49908,-12.64007 -27.49908,-28.23239c0,-15.59232 12.31176,-28.23239 27.49908,-28.23239c15.18732,0 27.49908,12.64007 27.49908,28.23239z" fill="#38d306" stroke="none"/><path d="M183.26351,252.39968c0,14.57983 -14.93827,26.39912 -33.36555,26.39912c-18.42728,0 -33.36555,-11.81929 -33.36555,-26.39912c0,-14.57983 14.93827,-26.39912 33.36555,-26.39912c18.42728,0 33.36555,11.81929 33.36555,26.39912z" fill="#38d306" stroke="none"/><path d="M139.76351,285.83107c0,13.80712 -12.4241,25 -27.75,25c-15.3259,0 -27.75,-11.19288 -27.75,-25c0,-13.80712 12.4241,-25 27.75,-25c15.3259,0 27.75,11.19288 27.75,25z" fill="#38d306" stroke="none"/><path d="M311.84592,379.25031v-323.00405h36.60323v323.00405z" fill="#6d3724" stroke="#000000"/><path d="M381.48304,41.50274c0,36.13384 -24.03468,65.4261 -53.68296,65.4261c-29.64828,0 -53.68296,-29.29228 -53.68296,-65.4261c0,-36.13384 24.03467,-65.42609 53.68296,-65.42609c29.64828,0 53.68296,29.29227 53.68296,65.42609z" fill="#2daf0d" stroke="none"/><path d="M400.70321,95.13204c0,23.75661 -18.75833,43.01515 -41.89788,43.01515c-23.13955,0 -41.89787,-19.25854 -41.89787,-43.01515c0,-23.75661 18.75832,-43.01515 41.89787,-43.01515c23.13955,0 41.89788,19.25854 41.89788,43.01515z" fill="#2daf0d" stroke="none"/><path d="M412.99324,49.88233c0,22.21397 -22.76009,40.22196 -50.83608,40.22196c-28.07598,0 -50.83608,-18.008 -50.83608,-40.22196c0,-22.21397 22.76009,-40.22195 50.83608,-40.22195c28.07598,0 50.83608,18.00799 50.83608,40.22195z" fill="#2daf0d" stroke="none"/><path d="M346.71621,100.81872c0,21.03667 -18.92948,38.09024 -42.28017,38.09024c-23.35069,0 -42.28017,-17.05358 -42.28017,-38.09024c0,-21.03667 18.92948,-38.09024 42.28017,-38.09024c23.35069,0 42.28017,17.05358 42.28017,38.09024z" fill="#2daf0d" stroke="none"/><path d="M260.83925,394.71471v-359.57736h44.90512v359.57736z" fill="#7e4530" stroke="#000000"/><path d="M346.27059,17.04989c0,44.32926 -29.48591,80.26522 -65.85865,80.26522c-36.37272,0 -65.85865,-35.93597 -65.85865,-80.26522c0,-44.32926 29.48591,-80.26522 65.85865,-80.26522c36.37272,0 65.85865,35.93597 65.85865,80.26522z" fill="#38d306" stroke="none"/><path d="M369.85003,82.84269c0,29.14479 -23.01284,52.7713 -51.40062,52.7713c-28.38777,0 -51.40062,-23.62651 -51.40062,-52.7713c0,-29.14479 23.01284,-52.7713 51.40062,-52.7713c28.38777,0 51.40062,23.62651 51.40062,52.7713z" fill="#38d306" stroke="none"/><path d="M384.92753,27.33002c0,27.25227 -27.92225,49.3446 -62.36608,49.3446c-34.44383,0 -62.36608,-22.09233 -62.36608,-49.3446c0,-27.25227 27.92225,-49.3446 62.36608,-49.3446c34.44383,0 62.36608,22.09233 62.36608,49.3446z" fill="#38d306" stroke="none"/><path d="M303.61838,89.81917c0,25.80794 -23.22283,46.7294 -51.86963,46.7294c-28.6468,0 -51.86963,-20.92146 -51.86963,-46.7294c0,-25.80794 23.22283,-46.7294 51.86963,-46.7294c28.6468,0 51.86963,20.92146 51.86963,46.7294z" fill="#38d306" stroke="none"/><path d="M255.27631,384.2042v-165.88401h19.58255v165.88401z" fill="#6d3724" stroke="#000000"/><path d="M292.53183,210.43248c0,19.33143 -12.85843,35.00264 -28.72012,35.00264c-15.86168,0 -28.72012,-15.67122 -28.72012,-35.00264c0,-19.33143 12.85843,-35.00264 28.72012,-35.00264c15.86168,0 28.72012,15.67122 28.72012,35.00264z" fill="#2daf0d" stroke="none"/><path d="M302.81453,239.12388c0,12.70967 -10.03561,23.01289 -22.41516,23.01289c-12.37955,0 -22.41516,-10.30322 -22.41516,-23.01289c0,-12.70967 10.03561,-23.01289 22.41516,-23.01289c12.37955,0 22.41516,10.30322 22.41516,23.01289z" fill="#2daf0d" stroke="none"/><path d="M309.38964,214.91551c0,11.88437 -12.17654,21.51855 -27.19706,21.51855c-15.02052,0 -27.19706,-9.63419 -27.19706,-21.51855c0,-11.88437 12.17654,-21.51855 27.19706,-21.51855c15.02052,0 27.19706,9.63419 27.19706,21.51855z" fill="#2daf0d" stroke="none"/><path d="M273.93175,242.16624c0,11.25451 -10.12718,20.3781 -22.61969,20.3781c-12.49251,0 -22.61969,-9.12358 -22.61969,-20.3781c0,-11.25451 10.12718,-20.3781 22.61969,-20.3781c12.49251,0 22.61969,9.12358 22.61969,20.3781z" fill="#2daf0d" stroke="none"/><path d="M227.98799,373.69368v-166.66667h24.02402v166.66667z" fill="#7e4530" stroke="#000000"/><path d="M273.69334,197.35031c0,23.71594 -15.77482,42.9415 -35.23406,42.9415c-19.45923,0 -35.23406,-19.22557 -35.23406,-42.9415c0,-23.71594 15.77482,-42.9415 35.23406,-42.9415c19.45923,0 35.23406,19.22557 35.23406,42.9415z" fill="#38d306" stroke="none"/><path d="M286.30823,232.54914c0,15.59232 -12.31176,28.23239 -27.49908,28.23239c-15.18732,0 -27.49908,-12.64007 -27.49908,-28.23239c0,-15.59232 12.31176,-28.23239 27.49908,-28.23239c15.18732,0 27.49908,12.64007 27.49908,28.23239z" fill="#38d306" stroke="none"/><path d="M294.37462,202.85013c0,14.57983 -14.93827,26.39912 -33.36555,26.39912c-18.42728,0 -33.36555,-11.81929 -33.36555,-26.39912c0,-14.57983 14.93827,-26.39912 33.36555,-26.39912c18.42728,0 33.36555,11.81929 33.36555,26.39912z" fill="#38d306" stroke="none"/><path d="M250.87462,236.28152c0,13.80712 -12.4241,25 -27.75,25c-15.3259,0 -27.75,-11.19288 -27.75,-25c0,-13.80712 12.4241,-25 27.75,-25c15.3259,0 27.75,11.19288 27.75,25z" fill="#38d306" stroke="none"/><path d="M-50.72767,420.45796v-75.07508h599.0991v75.07508z" fill="#38d306" stroke="none"/></g></g></svg>