<svg version="1.1" xmlns="http://www.w3.org/2000/svg" xmlns:xlink="http://www.w3.org/1999/xlink" width="107.49399" height="552.54053" viewBox="0,0,107.49399,552.54053"><g transform="translate(-186.88063,87.25525)"><g data-paper-data="{&quot;isPaintingLayer&quot;:true}" fill-rule="nonzero" stroke-width="0" stroke-linecap="butt" stroke-linejoin="miter" stroke-miterlimit="10" stroke-dasharray="" stroke-dashoffset="0" style="mix-blend-mode: normal"><path d="M227.98799,465.28528v-166.66667h24.02402v166.66667z" fill="#7e4530" stroke="#000000"/><path d="M258.01802,-87.25525v166.66667h-24.02402v-166.66667z" data-paper-data="{&quot;index&quot;:null}" fill="#7e4530" stroke="#000000"/><path d="M273.69334,288.94191c0,23.71594 -15.77482,42.9415 -35.23406,42.9415c-19.45923,0 -35.23406,-19.22557 -35.23406,-42.9415c0,-23.71594 15.77482,-42.9415 35.23406,-42.9415c19.45923,0 35.23406,19.22557 35.23406,42.9415z" fill="#81ff59" stroke="none"/><path d="M286.30823,324.14074c0,15.59232 -12.31176,28.23239 -27.49908,28.23239c-15.18732,0 -27.49908,-12.64007 -27.49908,-28.23239c0,-15.59232 12.31176,-28.23239 27.49908,-28.23239c15.18732,0 27.49908,12.64007 27.49908,28.23239z" fill="#81ff59" stroke="none"/><path d="M294.37462,294.44173c0,14.57983 -14.93827,26.39912 -33.36555,26.39912c-18.42728,0 -33.36555,-11.81929 -33.36555,-26.39912c0,-14.57983 14.93827,-26.39912 33.36555,-26.39912c18.42728,0 33.36555,11.81929 33.36555,26.39912z" fill="#81ff59" stroke="none"/><path d="M250.87462,327.87312c0,13.80712 -12.4241,25 -27.75,25c-15.3259,0 -27.75,-11.19288 -27.75,-25c0,-13.80712 12.4241,-25 27.75,-25c15.3259,0 27.75,11.19288 27.75,25z" fill="#81ff59" stroke="none"/><path d="M289.71737,73.1241c0,22.24659 -18.99135,40.28101 -42.41837,40.28101c-23.42702,0 -42.41837,-18.03442 -42.41837,-40.28101c0,-22.24659 18.99135,-40.28101 42.41837,-40.28101c23.42702,0 42.41837,18.03442 42.41837,40.28101z" fill="#81ff59" stroke="none"/><path d="M240.38063,91.34309c0,13.53098 -10.96902,24.5 -24.5,24.5c-13.53098,0 -24.5,-10.96902 -24.5,-24.5c0,-13.53098 10.96902,-24.5 24.5,-24.5c13.53098,0 24.5,10.96902 24.5,24.5z" fill="#81ff59" stroke="none"/><path d="M290.88063,99.34309c0,10.76955 -9.84974,19.5 -22,19.5c-12.15026,0 -22,-8.73045 -22,-19.5c0,-10.76955 9.84974,-19.5 22,-19.5c12.15026,0 22,8.73045 22,19.5z" fill="#81ff59" stroke="none"/><path d="M291.88063,94.59309c0,11.18377 -8.84238,20.25 -19.75,20.25c-10.90762,0 -19.75,-9.06623 -19.75,-20.25c0,-11.18377 8.84238,-20.25 19.75,-20.25c10.90762,0 19.75,9.06623 19.75,20.25z" fill="#81ff59" stroke="none"/><path d="M244.88063,55.09309c0,15.04976 -12.98374,27.25 -29,27.25c-16.01626,0 -29,-12.20024 -29,-27.25c0,-15.04976 12.98374,-27.25 29,-27.25c16.01626,0 29,12.20024 29,27.25z" fill="#81ff59" stroke="none"/></g></g></svg>