<svg version="1.1" xmlns="http://www.w3.org/2000/svg" xmlns:xlink="http://www.w3.org/1999/xlink" width="138.35971" height="59.89176" viewBox="0,0,138.35971,59.89176"><g transform="translate(-187.01806,-142.68828)"><g data-paper-data="{&quot;isPaintingLayer&quot;:true}" fill-rule="nonzero" stroke="none" stroke-width="0.95" stroke-linecap="butt" stroke-linejoin="miter" stroke-miterlimit="10" stroke-dasharray="" stroke-dashoffset="0" style="mix-blend-mode: normal"><g><path d="M285.6225,165.2654c-0.2964,1.7622 -0.1833,3.3525 0.2964,4.8906c-4.6578,14.0391 -12.672,26.3843 -26.1373,31.5808c-7.6931,2.9697 -23.484,-2.0244 -34.1459,-13.091c-6.8837,5.5338 -11.5425,10.0273 -19.7049,12.9561c-8.7903,3.1531 -5.9565,-5.6192 -3.932,-9.3983c-3.7791,1.0801 -9.9874,0.5405 -11.2024,-2.0245c-1.2502,-2.6381 1.5019,-4.7737 4.7414,-6.1227c-3.6442,-0.9443 -8.8578,-1.4621 -8.5025,-5.1281c0.3867,-3.9995 3.7611,-3.5948 9.5827,-4.5895c-3.2395,-2.4291 -7.2884,-6.4106 -5.5338,-9.9873c1.8886,-3.7791 10.3731,-6.5636 34.2789,11.0684c7.2874,1.35 34.2152,-16.872 44.8096,-23.4849c13.8339,-8.6374 29.1346,-13.8871 41.5691,-3.5093c0.9291,0.7752 1.6872,1.5504 2.3218,2.3227c-3.9016,-1.6777 -8.6184,-1.2635 -12.8801,-0.1748c-0.9623,0.2461 -1.9028,0.5225 -2.8034,0.8208c-5.8036,1.9228 -9.9874,5.3305 -12.0118,11.0666c-0.3487,0.987 -0.5966,1.9171 -0.7458,2.8044z" fill="#ff0600"/><path d="M298.3801,151.3935c-5.8036,1.9228 -9.9874,5.3304 -12.0109,11.0675c-0.3486,0.987 -0.5966,1.9171 -0.7457,2.8044c-1.7822,0.3534 -5.9632,-0.5206 -9.2749,-4.9457c-2.7483,-3.6718 0.2765,-8.4341 4.6835,-10.4177c6.9863,-3.1379 14.5702,-3.9254 20.1514,0.6707c-0.9623,0.246 -1.9028,0.5225 -2.8034,0.8208z" fill="#0043a5"/><path d="M315.7907,151.6633c0,0 17.7052,15.1867 4.9942,43.0521c-2.4472,-11.287 -10.6799,-28.9674 -21.9992,-25.1028c-0.4721,3.8807 1.3994,7.6076 5.111,8.8226c-4.4545,3.5426 -11.0152,1.2664 -14.6936,-2.8842c-1.634,-1.842 -2.7189,-3.5815 -3.2851,-5.3979c-0.4788,-1.5371 -0.5919,-3.1274 -0.2955,-4.8896c0.1501,-0.8873 0.3981,-1.8174 0.7458,-2.8044c2.0244,-5.7361 6.2082,-9.1438 12.0118,-11.0666c0.9006,-0.2983 1.842,-0.5747 2.8034,-0.8208c4.2617,-1.0887 8.9785,-1.5029 12.8801,0.1748c0.5957,0.2565 1.1733,0.5577 1.7271,0.9168z" fill="#ffa600"/></g><g><path d="M295.3011,152.7539c4.4774,5.0207 -3.0666,12.4583 -9.7128,7.5192c-2.5944,-1.9285 -2.1698,-5.6601 -0.7049,-7.3264c2.394,-2.7246 7.7615,-3.173 10.4177,-0.1928z" fill="#ffffff"/><path d="M293.6747,155.5051c0.5928,0 1.1296,0.2166 1.5181,0.5662c0.3886,0.3496 0.6289,0.8322 0.6289,1.3651c0,0.533 -0.2403,1.0156 -0.6289,1.3652c-0.3885,0.3496 -0.9253,0.5662 -1.5181,0.5662c-0.5928,0 -1.1295,-0.2166 -1.5181,-0.5662c-0.3885,-0.3496 -0.6289,-0.8322 -0.6289,-1.3652c0,-0.5329 0.2404,-1.0155 0.6289,-1.3651c0.3886,-0.3496 0.9253,-0.5662 1.5181,-0.5662z" fill="#272525"/></g></g></g></svg>